<?xml version="1.0" encoding="UTF-8"?>
<svg width="4130px" height="1736px" viewBox="0 0 4130 1736" version="1.1" xmlns="http://www.w3.org/2000/svg" xmlns:xlink="http://www.w3.org/1999/xlink">
    <!-- Generator: Sketch 57.1 (83088) - https://sketch.com -->
    <title>Keyboard</title>
    <desc>Created with Sketch.</desc>
    <g id="Page-1" stroke="none" stroke-width="1" fill="none" fill-rule="evenodd">
        <g id="Artboard" transform="translate(-4785.000000, -5057.000000)">
            <g id="Group-21" transform="translate(4828.000000, 5097.000000)">
                <rect id="Rectangle-Copy-81" stroke="#2B2B2B" stroke-width="24" fill="#494949" x="-12" y="-12" width="4055" height="1661" rx="32"></rect>
                <path d="M36,0 L3995,0 C4014.88225,-3.65231026e-15 4031,16.117749 4031,36 L4031,286 L4031,286 L0,286 L0,36 C-2.4348735e-15,16.117749 16.117749,3.65231026e-15 36,0 Z" id="Rectangle" fill="#FF7664"></path>
                <rect id="Rectangle-Copy-84" stroke="#979797" fill="#BABABA" transform="translate(255.000000, 693.000000) rotate(-270.000000) translate(-255.000000, -693.000000) " x="-69.5" y="618.5" width="649" height="149" rx="24"></rect>
                <rect id="Rectangle-Copy-85" stroke="#979797" fill="#BABABA" transform="translate(479.500000, 549.500000) rotate(-270.000000) translate(-479.500000, -549.500000) " x="297.5" y="475" width="364" height="149" rx="24"></rect>
                <rect id="Rectangle-Copy-86" stroke="#979797" fill="#BABABA" transform="translate(479.500000, 907.000000) rotate(-270.000000) translate(-479.500000, -907.000000) " x="369.5" y="832.5" width="220" height="149" rx="24"></rect>
                <rect id="Rectangle-Copy-87" fill="#2B2B2B" transform="translate(255.500000, 907.000000) rotate(-270.000000) translate(-255.500000, -907.000000) " x="181.5" y="856.5" width="148" height="101" rx="24"></rect>
                <g id="Group-18" transform="translate(739.000000, 286.000000)">
                    <path d="M110,2 L2,2 L2,1349 L223,1349 L223,892 L110,892 L110,2 Z" id="Combined-Shape" stroke="#2B2B2B" stroke-width="4" fill="#FFFFFF"></path>
                    <path d="M559,2 L451,2 L451,1349 L672,1349 L672,892 L559,892 L559,2 Z" id="Combined-Shape-Copy-2" stroke="#2B2B2B" stroke-width="4" fill="#FFFFFF" transform="translate(561.500000, 675.500000) scale(-1, 1) translate(-561.500000, -675.500000) "></path>
                    <path d="M400,2 L274,2 L274,892 L226,892 L226,1349 L447,1349 L447,892 L400,892 L400,2 Z" id="Combined-Shape-Copy" stroke="#2B2B2B" stroke-width="4" fill="#FFFFFF"></path>
                    <rect id="Rectangle" fill="#2B2B2B" x="112" y="0" width="161" height="890"></rect>
                    <rect id="Rectangle-Copy-77" fill="#2B2B2B" x="401" y="0" width="161" height="890"></rect>
                    <path d="M784,2 L676,2 L676,1349 L897,1349 L897,892 L784,892 L784,2 Z" id="Combined-Shape-Copy-5" stroke="#2B2B2B" stroke-width="4" fill="#FFFFFF"></path>
                    <path d="M1491,2 L1383,2 L1383,1349 L1604,1349 L1604,892 L1491,892 L1491,2 Z" id="Combined-Shape-Copy-4" stroke="#2B2B2B" stroke-width="4" fill="#FFFFFF" transform="translate(1493.500000, 675.500000) scale(-1, 1) translate(-1493.500000, -675.500000) "></path>
                    <path d="M1075,2 L949,2 L949,892 L901,892 L901,1349 L1154,1349 L1154,892 L1075,892 L1075,2 Z" id="Combined-Shape-Copy-3" stroke="#2B2B2B" stroke-width="4" fill="#FFFFFF"></path>
                    <path d="M1332,2 L1236,2 L1236,892 L1157,892 L1157,1349 L1379,1349 L1379,892 L1332,892 L1332,2 Z" id="Combined-Shape-Copy-6" stroke="#2B2B2B" stroke-width="4" fill="#FFFFFF"></path>
                    <rect id="Rectangle-Copy-79" fill="#2B2B2B" x="786" y="0" width="161" height="890"></rect>
                    <rect id="Rectangle-Copy-78" fill="#2B2B2B" x="1075" y="0" width="161" height="890"></rect>
                    <rect id="Rectangle-Copy-80" fill="#2B2B2B" x="1333" y="0" width="161" height="890"></rect>
                </g>
                <g id="Group-18-Copy" transform="translate(2345.000000, 286.000000)">
                    <path d="M110,2 L2,2 L2,1349 L223,1349 L223,892 L110,892 L110,2 Z" id="Combined-Shape" stroke="#2B2B2B" stroke-width="4" fill="#FFFFFF"></path>
                    <path d="M559,2 L451,2 L451,1349 L672,1349 L672,892 L559,892 L559,2 Z" id="Combined-Shape-Copy-2" stroke="#2B2B2B" stroke-width="4" fill="#FFFFFF" transform="translate(561.500000, 675.500000) scale(-1, 1) translate(-561.500000, -675.500000) "></path>
                    <path d="M400,2 L274,2 L274,892 L226,892 L226,1349 L447,1349 L447,892 L400,892 L400,2 Z" id="Combined-Shape-Copy" stroke="#2B2B2B" stroke-width="4" fill="#FFFFFF"></path>
                    <rect id="Rectangle" fill="#2B2B2B" x="112" y="0" width="161" height="890"></rect>
                    <rect id="Rectangle-Copy-77" fill="#2B2B2B" x="401" y="0" width="161" height="890"></rect>
                    <path d="M784,2 L676,2 L676,1349 L897,1349 L897,892 L784,892 L784,2 Z" id="Combined-Shape-Copy-5" stroke="#2B2B2B" stroke-width="4" fill="#FFFFFF"></path>
                    <path d="M1491,2 L1383,2 L1383,1349 L1604,1349 L1604,892 L1491,892 L1491,2 Z" id="Combined-Shape-Copy-4" stroke="#2B2B2B" stroke-width="4" fill="#FFFFFF" transform="translate(1493.500000, 675.500000) scale(-1, 1) translate(-1493.500000, -675.500000) "></path>
                    <path d="M1075,2 L949,2 L949,892 L901,892 L901,1349 L1154,1349 L1154,892 L1075,892 L1075,2 Z" id="Combined-Shape-Copy-3" stroke="#2B2B2B" stroke-width="4" fill="#FFFFFF"></path>
                    <path d="M1332,2 L1236,2 L1236,892 L1157,892 L1157,1349 L1379,1349 L1379,892 L1332,892 L1332,2 Z" id="Combined-Shape-Copy-6" stroke="#2B2B2B" stroke-width="4" fill="#FFFFFF"></path>
                    <rect id="Rectangle-Copy-79" fill="#2B2B2B" x="786" y="0" width="161" height="890"></rect>
                    <rect id="Rectangle-Copy-78" fill="#2B2B2B" x="1075" y="0" width="161" height="890"></rect>
                    <rect id="Rectangle-Copy-80" fill="#2B2B2B" x="1333" y="0" width="161" height="890"></rect>
                </g>
                <g id="Group-22" transform="translate(233.000000, 1255.000000)">
                    <circle id="Oval" stroke="#46B5D0" stroke-width="12" fill="#FFFFFF" cx="137.5" cy="137.5" r="131.5"></circle>
                    <path d="M98.2415929,102.068142 C102.041612,102.068142 105.558243,102.584803 108.791593,103.618142 C112.024942,104.65148 114.791581,106.134799 117.091593,108.068142 C119.391604,110.001485 121.191586,112.384794 122.491593,115.218142 C123.791599,118.051489 124.441593,121.33479 124.441593,125.068142 C124.441593,127.934823 124.008264,130.768128 123.141593,133.568142 C122.274922,136.368156 120.874936,138.901464 118.941593,141.168142 C117.00825,143.43482 114.474942,145.251468 111.341593,146.618142 C108.208244,147.984815 104.308283,148.668142 99.6415929,148.668142 L89.0415929,148.668142 L89.0415929,174.668142 L78.3415929,174.668142 L78.3415929,102.068142 L98.2415929,102.068142 Z M99.4415929,138.468142 C102.17494,138.468142 104.45825,138.034813 106.291593,137.168142 C108.124935,136.301471 109.558254,135.218148 110.591593,133.918142 C111.624931,132.618135 112.358257,131.218149 112.791593,129.718142 C113.224928,128.218134 113.441593,126.768149 113.441593,125.368142 C113.441593,124.034802 113.224928,122.634816 112.791593,121.168142 C112.358257,119.701468 111.624931,118.301482 110.591593,116.968142 C109.558254,115.634802 108.174935,114.534813 106.441593,113.668142 C104.708251,112.801471 102.574939,112.368142 100.041593,112.368142 L89.0415929,112.368142 L89.0415929,138.468142 L99.4415929,138.468142 Z M111.741593,144.668142 L130.541593,174.668142 L118.141593,174.668142 L99.0415929,144.968142 L111.741593,144.668142 Z" id="R" fill="#212121" fill-rule="nonzero"></path>
                    <path d="M190.834071,171.814248 C190.134067,172.420917 189.154077,173.027578 187.894071,173.634248 C186.634064,174.240917 185.222412,174.777579 183.659071,175.244248 C182.09573,175.710917 180.497412,176.095913 178.864071,176.399248 C177.230729,176.702583 175.690745,176.854248 174.244071,176.854248 C170.137384,176.854248 166.450754,176.224254 163.184071,174.964248 C159.917388,173.704241 157.117416,171.954259 154.784071,169.714248 C152.450726,167.474237 150.665744,164.849263 149.429071,161.839248 C148.192398,158.829233 147.574071,155.550932 147.574071,152.004248 C147.574071,147.664226 148.274064,143.814265 149.674071,140.454248 C151.074071,137.094231 152.975725,134.259259 155.379071,131.949248 C157.782416,129.639236 160.559055,127.889254 163.709071,126.699248 C166.859087,125.509242 170.16072,124.914248 173.614071,124.914248 C176.647419,124.914248 179.459058,125.264244 182.049071,125.964248 C184.639084,126.664251 186.867395,127.574242 188.734071,128.694248 L186.284071,135.554248 C185.350733,135.040912 184.195744,134.53925 182.819071,134.049248 C181.442397,133.559245 180.030745,133.174249 178.584071,132.894248 C177.137397,132.614246 175.80741,132.474248 174.594071,132.474248 C171.607389,132.474248 168.935749,132.90591 166.579071,133.769248 C164.222392,134.632585 162.204079,135.880906 160.524071,137.514248 C158.844062,139.147589 157.549075,141.130903 156.639071,143.464248 C155.729066,145.797593 155.274071,148.434233 155.274071,151.374248 C155.274071,154.034261 155.740733,156.47257 156.674071,158.689248 C157.607409,160.905926 158.914062,162.81924 160.594071,164.429248 C162.274079,166.039256 164.280726,167.27591 166.614071,168.139248 C168.947416,169.002585 171.53739,169.434248 174.384071,169.434248 C176.017412,169.434248 177.627396,169.270916 179.214071,168.944248 C180.800745,168.617579 182.154065,168.150917 183.274071,167.544248 L183.274071,158.304248 L173.474071,158.304248 L173.474071,151.094248 L190.834071,151.094248 L190.834071,171.814248 Z" id="G" fill="#6ECA28" fill-rule="nonzero"></path>
                </g>
            </g>
        </g>
    </g>
</svg>