<?xml version="1.0" encoding="UTF-8"?>
<svg width="3379px" height="2173px" viewBox="0 0 3379 2173" version="1.1" xmlns="http://www.w3.org/2000/svg" xmlns:xlink="http://www.w3.org/1999/xlink">
    <!-- Generator: Sketch 57.1 (83088) - https://sketch.com -->
    <title>Laptop</title>
    <desc>Created with Sketch.</desc>
    <g id="Page-1" stroke="none" stroke-width="1" fill="none" fill-rule="evenodd">
        <g id="Artboard" transform="translate(-3088.000000, -2702.000000)">
            <g id="Group-17" transform="translate(3088.000000, 2702.000000)">
                <rect id="Rectangle" stroke="#979797" stroke-width="12" fill="#D8D8D8" x="6" y="6" width="3367" height="2160.44248" rx="8"></rect>
                <rect id="Rectangle-Copy-75" fill="#BABABA" x="987" y="1238.44248" width="1284" height="787" rx="8"></rect>
                <g id="Group-16" transform="translate(175.000000, 136.000000)" fill="#2B2B2B">
                    <rect id="Rectangle" x="0" y="0" width="180" height="180" rx="4"></rect>
                    <rect id="Rectangle-Copy-2" x="207" y="0" width="180" height="180" rx="4"></rect>
                    <rect id="Rectangle-Copy-3" x="414" y="0" width="180" height="180" rx="4"></rect>
                    <rect id="Rectangle-Copy-29" x="0" y="206" width="284" height="180" rx="4"></rect>
                    <rect id="Rectangle-Copy-28" x="311" y="206" width="180" height="180" rx="4"></rect>
                    <rect id="Rectangle-Copy-42" x="0" y="412" width="332" height="180" rx="4"></rect>
                    <rect id="Rectangle-Copy-41" x="359" y="412" width="180" height="180" rx="4"></rect>
                    <rect id="Rectangle-Copy-56" x="0" y="618" width="437" height="180" rx="4"></rect>
                    <rect id="Rectangle-Copy-55" x="464" y="618" width="180" height="180" rx="4"></rect>
                    <rect id="Rectangle-Copy-67" x="0" y="824" width="230" height="180" rx="4"></rect>
                    <rect id="Rectangle-Copy-68" x="257" y="824" width="207" height="180" rx="4"></rect>
                    <rect id="Rectangle-Copy-69" x="491" y="824" width="234" height="180" rx="4"></rect>
                    <rect id="Rectangle-Copy-71" x="2030" y="824" width="234" height="180" rx="4"></rect>
                    <rect id="Rectangle-Copy-72" x="2291" y="824" width="234" height="180" rx="4"></rect>
                    <rect id="Rectangle-Copy-73" x="2552" y="824" width="234" height="180" rx="4"></rect>
                    <rect id="Rectangle-Copy-74" x="2813" y="824" width="216" height="180" rx="4"></rect>
                    <rect id="Rectangle-Copy-70" x="752" y="824" width="1251" height="180" rx="4"></rect>
                    <rect id="Rectangle-Copy-57" x="671" y="618" width="180" height="180" rx="4"></rect>
                    <rect id="Rectangle-Copy-58" x="878" y="618" width="180" height="180" rx="4"></rect>
                    <rect id="Rectangle-Copy-59" x="1085" y="618" width="180" height="180" rx="4"></rect>
                    <rect id="Rectangle-Copy-60" x="1292" y="618" width="180" height="180" rx="4"></rect>
                    <rect id="Rectangle-Copy-61" x="1499" y="618" width="180" height="180" rx="4"></rect>
                    <rect id="Rectangle-Copy-62" x="1706" y="618" width="180" height="180" rx="4"></rect>
                    <rect id="Rectangle-Copy-63" x="1913" y="618" width="180" height="180" rx="4"></rect>
                    <rect id="Rectangle-Copy-64" x="2120" y="618" width="180" height="180" rx="4"></rect>
                    <rect id="Rectangle-Copy-65" x="2327" y="618" width="180" height="180" rx="4"></rect>
                    <rect id="Rectangle-Copy-66" x="2534" y="618" width="495" height="180" rx="4"></rect>
                    <rect id="Rectangle-Copy-43" x="566" y="412" width="180" height="180" rx="4"></rect>
                    <rect id="Rectangle-Copy-44" x="773" y="412" width="180" height="180" rx="4"></rect>
                    <rect id="Rectangle-Copy-45" x="980" y="412" width="180" height="180" rx="4"></rect>
                    <rect id="Rectangle-Copy-46" x="980" y="412" width="180" height="180" rx="4"></rect>
                    <rect id="Rectangle-Copy-47" x="1187" y="412" width="180" height="180" rx="4"></rect>
                    <rect id="Rectangle-Copy-48" x="1394" y="412" width="180" height="180" rx="4"></rect>
                    <rect id="Rectangle-Copy-49" x="1601" y="412" width="180" height="180" rx="4"></rect>
                    <rect id="Rectangle-Copy-50" x="1808" y="412" width="180" height="180" rx="4"></rect>
                    <rect id="Rectangle-Copy-51" x="2015" y="412" width="180" height="180" rx="4"></rect>
                    <rect id="Rectangle-Copy-52" x="2222" y="412" width="180" height="180" rx="4"></rect>
                    <rect id="Rectangle-Copy-53" x="2429" y="412" width="180" height="180" rx="4"></rect>
                    <rect id="Rectangle-Copy-54" x="2636" y="412" width="393" height="180" rx="4"></rect>
                    <rect id="Rectangle-Copy-27" x="518" y="206" width="180" height="180" rx="4"></rect>
                    <rect id="Rectangle-Copy-30" x="725" y="206" width="180" height="180" rx="4"></rect>
                    <rect id="Rectangle-Copy-31" x="932" y="206" width="180" height="180" rx="4"></rect>
                    <rect id="Rectangle-Copy-32" x="1139" y="206" width="180" height="180" rx="4"></rect>
                    <rect id="Rectangle-Copy-33" x="1346" y="206" width="180" height="180" rx="4"></rect>
                    <rect id="Rectangle-Copy-34" x="1553" y="206" width="180" height="180" rx="4"></rect>
                    <rect id="Rectangle-Copy-35" x="1760" y="206" width="180" height="180" rx="4"></rect>
                    <rect id="Rectangle-Copy-36" x="1967" y="206" width="180" height="180" rx="4"></rect>
                    <rect id="Rectangle-Copy-37" x="2174" y="206" width="180" height="180" rx="4"></rect>
                    <rect id="Rectangle-Copy-38" x="2381" y="206" width="180" height="180" rx="4"></rect>
                    <rect id="Rectangle-Copy-39" x="2588" y="206" width="180" height="180" rx="4"></rect>
                    <rect id="Rectangle-Copy-40" x="2795" y="206" width="234" height="180" rx="4"></rect>
                    <rect id="Rectangle-Copy-4" x="621" y="0" width="180" height="180" rx="4"></rect>
                    <rect id="Rectangle-Copy-5" x="828" y="0" width="180" height="180" rx="4"></rect>
                    <rect id="Rectangle-Copy-6" x="1035" y="0" width="180" height="180" rx="4"></rect>
                    <rect id="Rectangle-Copy-7" x="1242" y="0" width="180" height="180" rx="4"></rect>
                    <rect id="Rectangle-Copy-20" x="1449" y="0" width="180" height="180" rx="4"></rect>
                    <rect id="Rectangle-Copy-21" x="1656" y="0" width="180" height="180" rx="4"></rect>
                    <rect id="Rectangle-Copy-22" x="1863" y="0" width="180" height="180" rx="4"></rect>
                    <rect id="Rectangle-Copy-23" x="2070" y="0" width="180" height="180" rx="4"></rect>
                    <rect id="Rectangle-Copy-24" x="2277" y="0" width="180" height="180" rx="4"></rect>
                    <rect id="Rectangle-Copy-25" x="2484" y="0" width="180" height="180" rx="4"></rect>
                    <rect id="Rectangle-Copy-26" x="2691" y="0" width="338" height="180" rx="4"></rect>
                </g>
            </g>
        </g>
    </g>
</svg>