<?xml version="1.0" encoding="UTF-8"?>
<svg width="600px" height="600px" viewBox="0 0 600 600" version="1.1" xmlns="http://www.w3.org/2000/svg" xmlns:xlink="http://www.w3.org/1999/xlink">
    <!-- Generator: Sketch 57.1 (83088) - https://sketch.com -->
    <title>Logo Dark Circle</title>
    <desc>Created with Sketch.</desc>
    <g id="Logo-Dark-Circle" stroke="none" stroke-width="1" fill="none" fill-rule="evenodd">
        <circle id="Oval" fill="#212121" cx="300" cy="300" r="300"></circle>
        <g id="Group" transform="translate(103.000000, 141.000000)">
            <path d="M110.435932,2.84217094e-14 L110.435932,69.6263526 L140.829877,69.6263526 L140.829877,28.6032654 L202.734161,28.6032654 C239.409412,36.351124 258.898443,58.6795364 261.201254,95.5885027 C260.049208,131.171025 240.560178,153.102044 202.734161,161.381561 L140.829877,161.381561 L140.829877,125.147834 L110.435932,125.147834 L110.435932,318.455021 L140.829877,318.455021 L140.829877,190.638977 L207.502877,190.638977 L235.233943,235.12635 L272.293422,235.12635 L240.125231,181.120898 C274.8052,162.523877 292.145184,134.013079 292.145184,95.5885027 C289.96903,40.9832348 260.165356,9.12040053 202.734161,2.84217094e-14 L110.435932,2.84217094e-14 Z" id="Path" fill="#FFFFFF"></path>
            <polygon id="Path-2" fill="#FFFFFF" points="269.587527 290.604059 286.525701 318.455021 323.531449 318.455021 306.348114 290.604059"></polygon>
            <path d="M307.72827,85.2352595 L356.052929,85.2352595" id="Path-3" stroke="#FFFFFF" stroke-width="8" stroke-linecap="round"></path>
            <path d="M307.72827,108.817184 L374.135508,108.817184" id="Path-3-Copy" stroke="#FFFFFF" stroke-width="8" stroke-linecap="round"></path>
            <path d="M153.872451,251.317184 L284.926571,251.317184 C318.162741,247.395599 338.761013,231.320082 346.721386,203.090631 C328.976741,203.090631 312.90868,203.090631 298.517201,203.090631" id="Path-3-Copy-5" stroke="#FFFFFF" stroke-width="8" stroke-linecap="round"></path>
            <path d="M153.872451,274.899109 L283.872451,274.817184 C339.665968,272.157617 370.558635,240.061614 376.550451,178.529177 C367.673079,178.529177 348.093892,178.529177 317.812889,178.529177" id="Path-3-Copy-4" stroke="#FFFFFF" stroke-width="8" stroke-linecap="round"></path>
            <path d="M94.0263247,275.275872 C94.0263247,275.275872 4.54303096,272.162765 1.42108547e-13,179.945825 C4.47939216,125.743468 34.1035424,94.033921 88.8724508,84.817184 L241.197109,85.2352595" id="Path-3-Copy-3" stroke="#FFFFFF" stroke-width="8" stroke-linecap="round"></path>
            <path d="M95.1651174,251.074466 C50.6174687,247.590147 26.7371557,223.8806 23.5241782,179.945825 C26.6202296,139.397441 48.4029872,115.687894 88.8724508,108.817184 L241.279688,108.817184" id="Path-3-Copy-2" stroke="#FFFFFF" stroke-width="8" stroke-linecap="round" stroke-linejoin="round"></path>
        </g>
    </g>
</svg>