<?xml version="1.0" encoding="UTF-8"?>
<svg width="889px" height="1250px" viewBox="0 0 889 1250" version="1.1" xmlns="http://www.w3.org/2000/svg" xmlns:xlink="http://www.w3.org/1999/xlink">
    <!-- Generator: Sketch 57.1 (83088) - https://sketch.com -->
    <title>Notebook</title>
    <desc>Created with Sketch.</desc>
    <g id="Page-1" stroke="none" stroke-width="1" fill="none" fill-rule="evenodd">
        <g id="Artboard" transform="translate(-5493.000000, -134.000000)">
            <g id="Group-6" transform="translate(5513.000000, 152.000000)">
                <rect id="Rectangle" stroke="#CDB998" stroke-width="12" fill="#E9C78C" x="-6" y="-6" width="863" height="1228"></rect>
                <polygon id="Rectangle-Copy-11" fill="#E6C48B" points="0 0 851 0 851 1216 0 199.618647"></polygon>
                <g id="Group" transform="translate(288.000000, 173.000000)">
                    <circle id="Oval" stroke="#46B5D0" stroke-width="12" fill="#FFFFFF" cx="137.5" cy="137.5" r="131.5"></circle>
                    <g id="Group-9" transform="translate(78.141593, 101.827434)" fill-rule="nonzero">
                        <path d="M20.1,0.240707965 C23.900019,0.240707965 27.4166505,0.757369465 30.65,1.79070796 C33.8833495,2.82404646 36.6499885,4.30736496 38.95,6.24070796 C41.2500115,8.17405096 43.0499935,10.5573605 44.35,13.390708 C45.6500065,16.2240555 46.3,19.507356 46.3,23.240708 C46.3,26.107389 45.866671,28.940694 45,31.740708 C44.133329,34.540722 42.733343,37.07403 40.8,39.340708 C38.866657,41.607386 36.333349,43.4240345 33.2,44.790708 C30.066651,46.1573815 26.16669,46.840708 21.5,46.840708 L10.9,46.840708 L10.9,72.840708 L0.2,72.840708 L0.2,0.240707965 L20.1,0.240707965 Z M21.3,36.640708 C24.033347,36.640708 26.3166575,36.207379 28.15,35.340708 C29.9833425,34.474037 31.4166615,33.3907145 32.45,32.090708 C33.4833385,30.7907015 34.2166645,29.3907155 34.65,27.890708 C35.0833355,26.3907005 35.3,24.940715 35.3,23.540708 C35.3,22.207368 35.0833355,20.807382 34.65,19.340708 C34.2166645,17.874034 33.4833385,16.474048 32.45,15.140708 C31.4166615,13.807368 30.033342,12.707379 28.3,11.840708 C26.566658,10.974037 24.433346,10.540708 21.9,10.540708 L10.9,10.540708 L10.9,36.640708 L21.3,36.640708 Z M33.6,42.840708 L52.4,72.840708 L40,72.840708 L20.9,43.140708 L33.6,42.840708 Z" id="R" fill="#212121"></path>
                        <path d="M112.692478,69.9868142 C111.992474,70.5934839 111.012484,71.2001445 109.752478,71.8068142 C108.492472,72.4134839 107.080819,72.9501452 105.517478,73.4168142 C103.954137,73.8834832 102.355819,74.2684793 100.722478,74.5718142 C99.0891364,74.875149 97.5491518,75.0268142 96.1024779,75.0268142 C91.9957907,75.0268142 88.3091609,74.3968205 85.0424779,73.1368142 C81.7757949,71.8768079 78.9758229,70.1268254 76.6424779,67.8868142 C74.3091329,65.646803 72.5241507,63.0218292 71.2874779,60.0118142 C70.050805,57.0017991 69.4324779,53.7234986 69.4324779,50.1768142 C69.4324779,45.8367925 70.1324709,41.986831 71.5324779,38.6268142 C72.9324779,35.2667974 74.8341325,32.4318257 77.2374779,30.1218142 C79.6408232,27.8118026 82.4174621,26.0618201 85.5674779,24.8718142 C88.7174936,23.6818082 92.0191273,23.0868142 95.4724779,23.0868142 C98.5058264,23.0868142 101.317465,23.4368107 103.907478,24.1368142 C106.497491,24.8368177 108.725802,25.7468086 110.592478,26.8668142 L108.142478,33.7268142 C107.20914,33.2134783 106.054151,32.7118166 104.677478,32.2218142 C103.300804,31.7318117 101.889152,31.3468156 100.442478,31.0668142 C98.995804,30.7868128 97.6658173,30.6468142 96.4524779,30.6468142 C93.4657963,30.6468142 90.7941563,31.0784765 88.4374779,31.9418142 C86.0807994,32.8051518 84.0624863,34.0534727 82.3824779,35.6868142 C80.7024695,37.3201557 79.4074824,39.3034692 78.4974779,41.6368142 C77.5874733,43.9701592 77.1324779,46.6067995 77.1324779,49.5468142 C77.1324779,52.2068275 77.5991399,54.6451364 78.5324779,56.8618142 C79.4658159,59.0784919 80.7724695,60.9918061 82.4524779,62.6018142 C84.1324863,64.2118222 86.1391329,65.4484765 88.4724779,66.3118142 C90.8058229,67.1751518 93.395797,67.6068142 96.2424779,67.6068142 C97.8758194,67.6068142 99.4858033,67.4434825 101.072478,67.1168142 C102.659152,66.7901459 104.012472,66.3234839 105.132478,65.7168142 L105.132478,56.4768142 L95.3324779,56.4768142 L95.3324779,49.2668142 L112.692478,49.2668142 L112.692478,69.9868142 Z" id="G" fill="#6ECA28"></path>
                    </g>
                </g>
            </g>
        </g>
    </g>
</svg>