<?xml version="1.0" encoding="UTF-8"?>
<svg width="1627px" height="232px" viewBox="0 0 1627 232" version="1.1" xmlns="http://www.w3.org/2000/svg" xmlns:xlink="http://www.w3.org/1999/xlink">
    <!-- Generator: Sketch 57.1 (83088) - https://sketch.com -->
    <title>Ruler</title>
    <desc>Created with Sketch.</desc>
    <g id="Page-1" stroke="none" stroke-width="1" fill="none" fill-rule="evenodd">
        <g id="Artboard" transform="translate(-6553.000000, -1963.000000)">
            <g id="Group-19" transform="translate(8147.000000, 98.000000)">
                <g id="Group-13" transform="translate(676.972474, 1302.000000) rotate(-15.000000) translate(-676.972474, -1302.000000) translate(311.972474, 52.000000)"></g>
            </g>
            <g id="Group-5" transform="translate(6573.000000, 1994.000000)">
                <path d="M1558,6 L16,6 C10.4771525,6 6,10.4771525 6,16 L6,154 C6,159.522847 10.4771525,164 16,164 L1558,164 C1563.52285,164 1568,159.522847 1568,154 L1568,16 C1568,10.4771525 1563.52285,6 1558,6 Z M55.3707865,59.96 C69.2027948,59.96 80.4165946,71.1703801 80.4165946,85 C80.4165946,98.8296199 69.2027948,110.04 55.3707865,110.04 C41.5387782,110.04 30.3249784,98.8296199 30.3249784,85 C30.3249784,71.1703801 41.5387782,59.96 55.3707865,59.96 Z" id="Combined-Shape" stroke="#2B2B2B" stroke-width="12" fill="#D8D8D8"></path>
                <g id="Group-4" transform="translate(84.000000, 0.000000)" stroke="#262626" stroke-width="6">
                    <path d="M0.340248963,-2.27373675e-13 L0.340248963,51.7219833" id="Path-20"></path>
                    <path d="M20.7551867,-2.73558953e-13 L20.7551867,30.9681361" id="Path-20"></path>
                    <path d="M41.1701245,-2.73558953e-13 L41.1701245,30.9681361" id="Path-20-Copy"></path>
                    <path d="M61.5850622,-2.73558953e-13 L61.5850622,30.9681361" id="Path-20-Copy-2"></path>
                    <path d="M82,-2.73558953e-13 L82,30.9681361" id="Path-20-Copy-3"></path>
                    <path d="M102.414938,-2.73558953e-13 L102.414938,30.9681361" id="Path-20-Copy-4"></path>
                    <path d="M122.829876,-2.73558953e-13 L122.829876,30.9681361" id="Path-20-Copy-5"></path>
                    <path d="M143.244813,-2.73558953e-13 L143.244813,30.9681361" id="Path-20-Copy-6"></path>
                    <path d="M163.659751,-2.73558953e-13 L163.659751,30.9681361" id="Path-20-Copy-7"></path>
                </g>
                <g id="Group-4-Copy" transform="translate(268.000000, 0.000000)" stroke="#262626" stroke-width="6">
                    <path d="M0.340248963,-2.27373675e-13 L0.340248963,51.7219833" id="Path-20"></path>
                    <path d="M20.7551867,-2.73558953e-13 L20.7551867,30.9681361" id="Path-20"></path>
                    <path d="M41.1701245,-2.73558953e-13 L41.1701245,30.9681361" id="Path-20-Copy"></path>
                    <path d="M61.5850622,-2.73558953e-13 L61.5850622,30.9681361" id="Path-20-Copy-2"></path>
                    <path d="M82,-2.73558953e-13 L82,30.9681361" id="Path-20-Copy-3"></path>
                    <path d="M102.414938,-2.73558953e-13 L102.414938,30.9681361" id="Path-20-Copy-4"></path>
                    <path d="M122.829876,-2.73558953e-13 L122.829876,30.9681361" id="Path-20-Copy-5"></path>
                    <path d="M143.244813,-2.73558953e-13 L143.244813,30.9681361" id="Path-20-Copy-6"></path>
                    <path d="M163.659751,-2.73558953e-13 L163.659751,30.9681361" id="Path-20-Copy-7"></path>
                </g>
                <g id="Group-4-Copy-3" transform="translate(452.000000, 0.000000)" stroke="#262626" stroke-width="6">
                    <path d="M0.340248963,-2.27373675e-13 L0.340248963,51.7219833" id="Path-20"></path>
                    <path d="M20.7551867,-2.73558953e-13 L20.7551867,30.9681361" id="Path-20"></path>
                    <path d="M41.1701245,-2.73558953e-13 L41.1701245,30.9681361" id="Path-20-Copy"></path>
                    <path d="M61.5850622,-2.73558953e-13 L61.5850622,30.9681361" id="Path-20-Copy-2"></path>
                    <path d="M82,-2.73558953e-13 L82,30.9681361" id="Path-20-Copy-3"></path>
                    <path d="M102.414938,-2.73558953e-13 L102.414938,30.9681361" id="Path-20-Copy-4"></path>
                    <path d="M122.829876,-2.73558953e-13 L122.829876,30.9681361" id="Path-20-Copy-5"></path>
                    <path d="M143.244813,-2.73558953e-13 L143.244813,30.9681361" id="Path-20-Copy-6"></path>
                    <path d="M163.659751,-2.73558953e-13 L163.659751,30.9681361" id="Path-20-Copy-7"></path>
                </g>
                <g id="Group-4-Copy-2" transform="translate(636.000000, 0.000000)" stroke="#262626" stroke-width="6">
                    <path d="M0.340248963,-2.27373675e-13 L0.340248963,51.7219833" id="Path-20"></path>
                    <path d="M20.7551867,-2.73558953e-13 L20.7551867,30.9681361" id="Path-20"></path>
                    <path d="M41.1701245,-2.73558953e-13 L41.1701245,30.9681361" id="Path-20-Copy"></path>
                    <path d="M61.5850622,-2.73558953e-13 L61.5850622,30.9681361" id="Path-20-Copy-2"></path>
                    <path d="M82,-2.73558953e-13 L82,30.9681361" id="Path-20-Copy-3"></path>
                    <path d="M102.414938,-2.73558953e-13 L102.414938,30.9681361" id="Path-20-Copy-4"></path>
                    <path d="M122.829876,-2.73558953e-13 L122.829876,30.9681361" id="Path-20-Copy-5"></path>
                    <path d="M143.244813,-2.73558953e-13 L143.244813,30.9681361" id="Path-20-Copy-6"></path>
                    <path d="M163.659751,-2.73558953e-13 L163.659751,30.9681361" id="Path-20-Copy-7"></path>
                </g>
                <g id="Group-4-Copy-7" transform="translate(821.000000, 0.000000)" stroke="#262626" stroke-width="6">
                    <path d="M0.340248963,-2.27373675e-13 L0.340248963,51.7219833" id="Path-20"></path>
                    <path d="M20.7551867,-2.73558953e-13 L20.7551867,30.9681361" id="Path-20"></path>
                    <path d="M41.1701245,-2.73558953e-13 L41.1701245,30.9681361" id="Path-20-Copy"></path>
                    <path d="M61.5850622,-2.73558953e-13 L61.5850622,30.9681361" id="Path-20-Copy-2"></path>
                    <path d="M82,-2.73558953e-13 L82,30.9681361" id="Path-20-Copy-3"></path>
                    <path d="M102.414938,-2.73558953e-13 L102.414938,30.9681361" id="Path-20-Copy-4"></path>
                    <path d="M122.829876,-2.73558953e-13 L122.829876,30.9681361" id="Path-20-Copy-5"></path>
                    <path d="M143.244813,-2.73558953e-13 L143.244813,30.9681361" id="Path-20-Copy-6"></path>
                    <path d="M163.659751,-2.73558953e-13 L163.659751,30.9681361" id="Path-20-Copy-7"></path>
                </g>
                <g id="Group-4-Copy-6" transform="translate(1005.000000, 0.000000)" stroke="#262626" stroke-width="6">
                    <path d="M0.340248963,-2.27373675e-13 L0.340248963,51.7219833" id="Path-20"></path>
                    <path d="M20.7551867,-2.73558953e-13 L20.7551867,30.9681361" id="Path-20"></path>
                    <path d="M41.1701245,-2.73558953e-13 L41.1701245,30.9681361" id="Path-20-Copy"></path>
                    <path d="M61.5850622,-2.73558953e-13 L61.5850622,30.9681361" id="Path-20-Copy-2"></path>
                    <path d="M82,-2.73558953e-13 L82,30.9681361" id="Path-20-Copy-3"></path>
                    <path d="M102.414938,-2.73558953e-13 L102.414938,30.9681361" id="Path-20-Copy-4"></path>
                    <path d="M122.829876,-2.73558953e-13 L122.829876,30.9681361" id="Path-20-Copy-5"></path>
                    <path d="M143.244813,-2.73558953e-13 L143.244813,30.9681361" id="Path-20-Copy-6"></path>
                    <path d="M163.659751,-2.73558953e-13 L163.659751,30.9681361" id="Path-20-Copy-7"></path>
                </g>
                <g id="Group-4-Copy-5" transform="translate(1189.000000, 0.000000)" stroke="#262626" stroke-width="6">
                    <path d="M0.340248963,-2.27373675e-13 L0.340248963,51.7219833" id="Path-20"></path>
                    <path d="M20.7551867,-2.73558953e-13 L20.7551867,30.9681361" id="Path-20"></path>
                    <path d="M41.1701245,-2.73558953e-13 L41.1701245,30.9681361" id="Path-20-Copy"></path>
                    <path d="M61.5850622,-2.73558953e-13 L61.5850622,30.9681361" id="Path-20-Copy-2"></path>
                    <path d="M82,-2.73558953e-13 L82,30.9681361" id="Path-20-Copy-3"></path>
                    <path d="M102.414938,-2.73558953e-13 L102.414938,30.9681361" id="Path-20-Copy-4"></path>
                    <path d="M122.829876,-2.73558953e-13 L122.829876,30.9681361" id="Path-20-Copy-5"></path>
                    <path d="M143.244813,-2.73558953e-13 L143.244813,30.9681361" id="Path-20-Copy-6"></path>
                    <path d="M163.659751,-2.73558953e-13 L163.659751,30.9681361" id="Path-20-Copy-7"></path>
                </g>
                <g id="Group-4-Copy-4" transform="translate(1374.000000, 0.000000)" stroke="#262626" stroke-width="6">
                    <path d="M0.340248963,-2.27373675e-13 L0.340248963,51.7219833" id="Path-20"></path>
                    <path d="M20.7551867,-2.73558953e-13 L20.7551867,30.9681361" id="Path-20"></path>
                    <path d="M41.1701245,-2.73558953e-13 L41.1701245,30.9681361" id="Path-20-Copy"></path>
                    <path d="M61.5850622,-2.73558953e-13 L61.5850622,30.9681361" id="Path-20-Copy-2"></path>
                    <path d="M82,-2.73558953e-13 L82,30.9681361" id="Path-20-Copy-3"></path>
                    <path d="M102.414938,-2.73558953e-13 L102.414938,30.9681361" id="Path-20-Copy-4"></path>
                    <path d="M122.829876,-2.73558953e-13 L122.829876,30.9681361" id="Path-20-Copy-5"></path>
                    <path d="M143.244813,-2.73558953e-13 L143.244813,30.9681361" id="Path-20-Copy-6"></path>
                    <path d="M163.659751,-2.73558953e-13 L163.659751,30.9681361" id="Path-20-Copy-7"></path>
                </g>
            </g>
        </g>
    </g>
</svg>