<?xml version="1.0" encoding="UTF-8"?>
<svg width="998px" height="555px" viewBox="0 0 998 555" version="1.1" xmlns="http://www.w3.org/2000/svg" xmlns:xlink="http://www.w3.org/1999/xlink">
    <!-- Generator: Sketch 57.1 (83088) - https://sketch.com -->
    <title>Sony A6000</title>
    <desc>Created with Sketch.</desc>
    <g id="Page-1" stroke="none" stroke-width="1" fill="none" fill-rule="evenodd">
        <g id="Artboard" transform="translate(-4239.000000, -743.000000)">
            <g id="Camera" transform="translate(4239.000000, 743.000000)">
                <rect id="Rectangle" fill="#212121" transform="translate(499.000000, 287.500000) scale(1, -1) translate(-499.000000, -287.500000) " x="0" y="20" width="998" height="535" rx="8"></rect>
                <path d="M8,20 L285,20 L285,20 L285,555 L8,555 C3.581722,555 5.41083001e-16,551.418278 0,547 L0,28 C-5.41083001e-16,23.581722 3.581722,20 8,20 Z" id="Rectangle-Copy" fill="#2B2B2B"></path>
                <rect id="Rectangle-Copy" fill="#D8D8D8" x="318" y="44" width="70" height="87" rx="4"></rect>
                <rect id="Rectangle-Copy-10" fill="#7ED322" x="325" y="51" width="43" height="53" rx="4"></rect>
                <path d="M51,0 L142,0 L142,16 C142,18.209139 140.209139,20 138,20 L55,20 C52.790861,20 51,18.209139 51,16 L51,0 L51,0 Z" id="Rectangle-Copy-8" fill="#2B2B2B" transform="translate(96.500000, 10.000000) scale(1, -1) translate(-96.500000, -10.000000) "></path>
                <path d="M57,6 L57,26 L8,26 C6.8954305,26 6,26.8954305 6,28 L6,547 C6,548.104569 6.8954305,549 8,549 L990,549 C991.104569,549 992,548.104569 992,547 L992,28 C992,26.8954305 991.104569,26 990,26 L136,26 L136,6 L57,6 Z" id="Combined-Shape" stroke="#2B2B2B" stroke-width="12"></path>
                <path d="M57,6 L137,6 L137,16 C137,18.209139 135.209139,20 133,20 L61,20 C58.790861,20 57,18.209139 57,16 L57,6 L57,6 Z" id="Rectangle-Copy-9" fill="#404040" transform="translate(97.000000, 13.000000) scale(1, -1) translate(-97.000000, -13.000000) "></path>
                <path d="M449.038029,411.999363 C461.227101,431.576518 476.435411,449.026939 493.999612,463.677844 C488.224572,468.263599 480.945172,471 473.035614,471 C454.238263,471 439,455.545015 439,436.480324 C439,426.947979 442.809566,418.31806 448.968801,412.071227 Z" id="Combined-Shape" fill="#D8D8D8"></path>
                <circle id="Oval" stroke="#2B2B2B" stroke-width="24" transform="translate(637.000000, 291.000000) scale(1, -1) translate(-637.000000, -291.000000) " cx="637" cy="291" r="202"></circle>
                <circle id="Oval" stroke="#2B2B2B" stroke-width="24" fill="#4198FF" opacity="0.423549107" transform="translate(637.000000, 291.000000) scale(1, -1) translate(-637.000000, -291.000000) " cx="637" cy="291" r="202"></circle>
            </g>
        </g>
    </g>
</svg>