<?xml version="1.0" encoding="UTF-8"?>
<svg width="299px" height="830px" viewBox="0 0 299 830" version="1.1" xmlns="http://www.w3.org/2000/svg" xmlns:xlink="http://www.w3.org/1999/xlink">
    <!-- Generator: Sketch 57.1 (83088) - https://sketch.com -->
    <title>Wrench</title>
    <desc>Created with Sketch.</desc>
    <g id="Page-1" stroke="none" stroke-width="1" fill="none" fill-rule="evenodd">
        <g id="Artboard" transform="translate(-6714.000000, -203.000000)">
            <g id="Group-10" transform="translate(6736.000000, 259.000000)">
                <rect id="Rectangle" fill="#C5C5C5" x="80" y="217.563529" width="97" height="543"></rect>
                <path d="M83.017125,-8.8817842e-16 L62.5352543,110.493663 L193.467296,134.413796 L213.078608,22.7250489 C240.582571,46.3825534 258,81.4390119 258,120.563529 C258,191.808262 200.244733,249.563529 129,249.563529 C57.7552673,249.563529 0,191.808262 0,120.563529 C0,65.5171618 34.4781061,18.5235876 83.017125,-8.8817842e-16 Z" id="Combined-Shape" fill="#D8D8D8"></path>
                <rect id="Rectangle-Copy-12" fill="#BABABA" x="99" y="301.563529" width="58" height="440" rx="24"></rect>
            </g>
            <polygon id="Path-22" stroke="#979797" stroke-width="13" points="6913 1019.56353 6913 499.291051 6919.63316 496.509421 6925.68533 493.401251 6930.65386 490.547963 6935.78627 487.448864 6941.42089 483.525858 6946.2056 479.788798 6951.74406 475.000765 6957.05033 469.742274 6962.44064 464.056863 6967.34478 457.925485 6972.18723 451.290087 6976.5039 444.542819 6979.82795 438.270242 6982.78585 432.23622 6985.90128 424.861271 6988.31706 417.466065 6990.68175 408.348968 6992.27423 400.136204 6993.32188 392.090338 6994 384.392176 6994 374.081095 6993.32188 365.496742 6991.84641 356.550474 6989.89171 347.178193 6987.54062 339.114791 6984.94252 332.045216 6981.8667 325.053346 6978.55898 318.183928 6974.56583 311.413984 6970.28968 305.043445 6966.05041 299.348359 6961.53631 294.118592 6956.61645 288.767581 6951.74406 284.213871 6949.14263 281.893628 6929.4673 393.413796 6798.53525 369.493663 6819.11898 259 6813.24041 261.462669 6803.82681 265.939458 6796.47343 270.381204 6790.18174 274.444865 6784.32341 278.929058 6777.79974 284.213871 6773.40044 288.767581 6768.08801 294.118592 6762.49918 301.039562 6757.15912 308.35741 6751.66901 318.183928 6746.56734 328.29171 6742.99578 337.17915 6740.36647 345.894822 6737.634 357.533982 6736.72679 366.690917 6736 376.894739 6736 384.392176 6736.72679 392.090338 6737.634 401.644256 6739.87892 411.120071 6742.99578 421.549715 6746.56734 430.888214 6750.54987 439.078306 6755.71704 448.222949 6761.6394 456.711539 6766.51809 463.051586 6772.27868 469.165433 6780.3861 477.004772 6787.72687 482.877028 6796.47343 488.933609 6805.35867 494.018818 6816 498.735378 6816 1020"></polygon>
        </g>
    </g>
</svg>